<?xml version="1.0" encoding="UTF-8"?>
<svg id="Layer_1" data-name="Layer 1" xmlns="http://www.w3.org/2000/svg" viewBox="0 0 541.85 85.12">
  <defs>
    <style>
      .cls-1 {
        fill: #f48a93;
      }

      .cls-1, .cls-2 {
        stroke-width: 0px;
      }

      .cls-2 {
        fill: #f48d96;
      }
    </style>
  </defs>
  <path class="cls-1" d="M343.05,77.64c-10.05,0-14.94-5.34-14.94-16.32v-26.71c0-1.3-.57-1.87-1.87-1.87h-5.09v-11.36h10.85c5.11,0,7.39,2.28,7.39,7.39l.17,31.9c0,5.24,1.49,7.26,5.32,7.26,1.68,0,2.85-.11,2.87-.11l.55-.04-.13,9.62-.45.04s-2.21.21-4.68.21Z"/>
  <path class="cls-1" d="M332.66,13.6c-3.75,0-6.79-3.04-6.79-6.81s3.04-6.79,6.79-6.79,6.79,3.04,6.79,6.79-3.04,6.81-6.79,6.81Z"/>
  <path class="cls-1" d="M411.88,77.45h-7.81c-5.28,0-7.07-1-9.51-5.32l-9.94-18.37c-1.02-1.79-3.19-2-4.96-2h-3.85l-.04,13.58c0,1.3.57,1.87,1.87,1.87h5.07v10.22h-25.33v-10.26h5.07c1.3,0,1.87-.57,1.87-1.87V12c0-1.3-.57-1.87-1.87-1.87h-4.92V.19h10.88c4.09,0,7.41,3.32,7.41,7.41v34.29h4.36c1.36,0,3.87-.28,5.34-2.19l12.77-17.92h13.22l-15.37,21.09c-1.68,2.28-3,3.41-3.7,3.89.74.49,2.04,1.6,3.32,4l8.11,14.79c.77,1.51,1.62,1.89,4.21,1.89h3.85v10h-.04Z"/>
  <path class="cls-1" d="M445.52,78.75c-17.13,0-29.56-12.26-29.56-29.14s11.49-29.14,27.94-29.14c7.41,0,13.6,2.66,17.9,7.66,3.96,4.62,6.15,11.17,6.15,18.43,0,1.43-.32,4.26-.32,4.38l-.04.45h-39.78c.92,11.92,9.77,17.26,18.28,17.26,9.09,0,15.58-6.17,15.64-6.24l.45-.43,5.07,8.32-.28.28c-.13.11-8.43,8.15-21.45,8.15ZM428.28,42.76h27.84c-.47-7.87-5.28-12.94-12.34-12.94-7.94-.02-13.83,4.94-15.49,12.94Z"/>
  <path class="cls-1" d="M541.85,77.6h-12.37c-5.13,0-7.41-2.28-7.41-7.41v-25.71c0-7.94-1.66-13.22-9.77-13.22s-14.64,5.11-16.81,13.02c-.66,1.89-.96,4.11-.96,7.21v18.69c0,5.13-2.28,7.41-7.41,7.41h-12.37v-9.96h6.41c1.3,0,1.87-.57,1.87-1.87l-.17-26.73c0-5.24-1.49-7.26-5.32-7.26-1.68,0-2.85.11-2.87.11l-.55.04.13-9.62.45-.04s2.21-.21,4.68-.21c8.07,0,12.77,3.41,14.34,10.43,2.19-3.96,8.09-11.85,20.5-11.85s19.3,7.02,19.3,21.45v23.67c0,1.3.57,1.87,1.87,1.87h6.41v9.98h.04Z"/>
  <path class="cls-1" d="M319.12,78.15h-12.37c-5.13,0-7.41-2.28-7.41-7.41v-25.71c0-7.94-1.66-13.22-9.77-13.22s-14.64,5.11-16.81,13.02c-.66,1.89-.96,4.11-.96,7.21v18.69c0,5.13-2.28,7.41-7.41,7.41h-12.37v-9.96h6.41c1.3,0,1.87-.57,1.87-1.87l-.17-26.73c0-5.24-1.49-7.26-5.32-7.26-1.68,0-2.85.11-2.87.11l-.55.04.13-9.62.45-.04s2.21-.21,4.68-.21c8.07,0,12.77,3.41,14.34,10.43,2.19-3.96,8.09-11.85,20.5-11.85s19.3,7.02,19.3,21.45v23.67c0,1.3.57,1.87,1.87,1.87h6.41v9.98h.04Z"/>
  <path class="cls-1" d="M187.71,34.28c0-1.65-.88-2.26-2.47-2.26h-4.73v-9.45h10.77c5.22,0,7.37,2.09,7.37,6.81v26.36c0,7.69,1.59,13.84,10.66,13.84,11.8,0,18.71-9.99,18.71-20.98v-26.03h11l.05,43.78c0,1.65.88,1.85,2.47,1.85h4.52l.1,9.94h-10.55c-4.88,0-7.26-2.2-7.26-6.15v-2.09c0-1.76.11-3.18.11-3.18h-.23c-2.38,5.49-9.75,12.74-21.1,12.74-12.93,0-19.51-6.59-19.51-21.31l.05-23.87Z"/>
  <path class="cls-1" d="M175.78,18.17v-8c0-4.97-6.08-8.97-11.3-8.97l-34.3.05h-7.6v10.17h7.58v3.34h0l-.05,52.07c0,1.27-1.02,2.3-2.28,2.3h-5.68v10.36h8.02c6.38,0,11.51-4.13,11.54-11.91l-.03-20.81,26.93-.21-.21-10.12-26.69-.04-.03-25.2h20.35c1.62,0,2.55.33,2.55,1.99v4.97h11.23Z"/>
  <path class="cls-1" d="M38.4,2.84c3.05,0,5.52,4.14,5.52,9.25s-2.47,9.25-5.52,9.25-5.52-4.14-5.52-9.25,2.47-9.25,5.52-9.25"/>
  <path class="cls-1" d="M61.43,2.84c3.05,0,5.52,4.14,5.52,9.25s-2.47,9.25-5.52,9.25-5.52-4.14-5.52-9.25,2.47-9.25,5.52-9.25"/>
  <path class="cls-2" d="M50.62,67.71c12.45,0,24.15-4.85,32.96-13.65,1.61-1.61,3.09-3.32,4.43-5.11l-8-8c-6.38,9.42-17.17,15.62-29.39,15.62s-23.78-6.66-30.06-16.66l-8.04,8.04c1.53,2.15,3.24,4.2,5.15,6.1,8.8,8.8,20.51,13.65,32.96,13.65Z"/>
  <path class="cls-2" d="M50.67,85.12c17.2,0,33.38-6.7,45.54-18.86,1.53-1.53,2.97-3.12,4.32-4.77l-7.92-7.92c-1.32,1.68-2.74,3.29-4.27,4.82-10.06,10.06-23.44,15.6-37.67,15.6s-27.61-5.54-37.67-15.6c-1.84-1.84-3.53-3.79-5.06-5.84l-7.94,7.94c1.58,2.01,3.29,3.94,5.13,5.77,12.17,12.17,28.34,18.86,45.54,18.86Z"/>
  <path class="cls-2" d="M49.73,48.27c10.17,0,19.06-5.56,23.79-13.8l-8.38-8.38c-2.19,6.42-8.27,11.05-15.42,11.05s-13.19-4.6-15.4-10.99l-8.37,8.37c4.74,8.21,13.62,13.75,23.76,13.75Z"/>
</svg>