<?xml version="1.0" encoding="UTF-8"?>
<svg id="Layer_1" data-name="Layer 1" xmlns="http://www.w3.org/2000/svg" viewBox="0 0 100.53 82.28">
  <defs>
    <style>
      .cls-1 {
        fill: #f48a93;
      }

      .cls-1, .cls-2 {
        stroke-width: 0px;
      }

      .cls-2 {
        fill: #f48d96;
      }
    </style>
  </defs>
  <path class="cls-1" d="M38.4,0c3.05,0,5.52,4.14,5.52,9.25s-2.47,9.25-5.52,9.25-5.52-4.14-5.52-9.25S35.35,0,38.4,0"/>
  <path class="cls-1" d="M61.43,0c3.05,0,5.52,4.14,5.52,9.25s-2.47,9.25-5.52,9.25-5.52-4.14-5.52-9.25S58.38,0,61.43,0"/>
  <path class="cls-2" d="M50.62,64.87c12.45,0,24.15-4.85,32.96-13.65,1.61-1.61,3.09-3.32,4.43-5.11l-8-8c-6.38,9.42-17.17,15.62-29.39,15.62s-23.78-6.66-30.06-16.66l-8.04,8.04c1.53,2.15,3.24,4.2,5.15,6.1,8.8,8.8,20.51,13.65,32.96,13.65h-.01Z"/>
  <path class="cls-2" d="M50.67,82.28c17.2,0,33.38-6.7,45.54-18.86,1.53-1.53,2.97-3.12,4.32-4.77l-7.92-7.92c-1.32,1.68-2.74,3.29-4.27,4.82-10.06,10.06-23.44,15.6-37.67,15.6s-27.61-5.54-37.67-15.6c-1.84-1.84-3.53-3.79-5.06-5.84l-7.94,7.94c1.58,2.01,3.29,3.94,5.13,5.77,12.17,12.17,28.34,18.86,45.54,18.86h0Z"/>
  <path class="cls-2" d="M49.73,45.43c10.17,0,19.06-5.56,23.79-13.8l-8.38-8.38c-2.19,6.42-8.27,11.05-15.42,11.05s-13.19-4.6-15.4-10.99l-8.37,8.37c4.74,8.21,13.62,13.75,23.76,13.75h.02Z"/>
</svg>