<?xml version="1.0" encoding="UTF-8"?>
<svg id="Layer_1" data-name="Layer 1" xmlns="http://www.w3.org/2000/svg" viewBox="0 0 96.22 87.28">
  <defs>
    <style>
      .cls-1 {
        fill: #ffce0d;
        stroke-width: 0px;
      }
    </style>
  </defs>
  <path class="cls-1" d="m62.29,79.33c3.35,0,11.53-.94,11.53-10.98v-12.02c0-10.77,10.47-12.2,10.47-12.2v-.21s-10.47-4-10.47-14.35v-10.77c0-10.03-8.18-10.98-11.53-10.98h-1.88V.1s1.21-.1,3.08-.1c6.44,0,21.33,2.75,21.33,19.26v8.78c0,10.87,11.4,11.6,11.4,11.6v8.99s-11.4.73-11.4,11.39v10.03c0,16.62-14.89,17.22-21.33,17.22-1.88,0-3.08-.21-3.08-.21v-7.73h1.88Z"/>
  <ellipse class="cls-1" cx="38.98" cy="32.76" rx="4.33" ry="7.15"/>
  <ellipse class="cls-1" cx="57.05" cy="32.76" rx="4.33" ry="7.15"/>
  <path class="cls-1" d="m53.77,47.36v1.53c0,6.78-4.63,7.41-6.52,7.41h-1.06v5.22s.68.14,1.74.14c3.64,0,12.29-1.13,12.29-12.36v-1.95h-6.45Z"/>
  <path class="cls-1" d="m35.81,79.33v7.73s-1.21.21-3.08.21c-6.44,0-21.33-.6-21.33-17.22v-10.03c0-10.66-11.4-11.39-11.4-11.39v-8.99s11.4-.73,11.4-11.6v-8.78C11.4,2.75,26.29,0,32.73,0c1.88,0,3.08.1,3.08.1v7.74h-1.88c-3.35,0-11.53.94-11.53,10.98v10.77c0,10.35-10.47,14.35-10.47,14.35v.21s10.47,1.44,10.47,12.2v12.02c0,10.03,8.18,10.98,11.53,10.98h1.88Z"/>
</svg>