<?xml version="1.0" encoding="UTF-8"?>
<svg id="Layer_1" data-name="Layer 1" xmlns="http://www.w3.org/2000/svg" viewBox="0 0 634.99 87.28">
  <defs>
    <style>
      .cls-1 {
        fill: #ffce0d;
        stroke-width: 0px;
      }
    </style>
  </defs>
  <g>
    <path class="cls-1" d="m438.8,78.4c-9.91,0-14.74-5.27-14.74-16.11v-26.36c0-1.28-.57-1.85-1.85-1.85h-5.02v-11.22h10.71c5.04,0,7.29,2.25,7.29,7.29l.17,31.48c0,5.17,1.47,7.16,5.25,7.16,1.66,0,2.81-.11,2.84-.11l.55-.04-.13,9.49-.44.04s-2.18.21-4.62.21Z"/>
    <path class="cls-1" d="m325.51,79.75h-24.99v-10.12h5c1.28,0,1.85-.57,1.85-1.85v-31.25c0-1.28-.57-1.85-1.85-1.85h-4.85v-9.83h10.46c5,0,7.41,2.23,7.41,6.78v3.4c0,.4,0,.76-.02,1.11,3.26-7.44,9.43-11.95,16.59-11.95,1.41,0,2.79.21,2.84.21l.42.06v11.26l-.59-.15s-1.37-.32-2.98-.32c-6.62,0-12.37,4.85-14.68,12.35-.9,2.94-1.47,6.89-1.47,10.33v9.83c0,1.28.57,1.85,1.85,1.85h5v10.12h.02Z"/>
    <path class="cls-1" d="m428.55,15.21c-3.7,0-6.7-3-6.7-6.72s3-6.7,6.7-6.7,6.7,3,6.7,6.7-3,6.72-6.7,6.72Z"/>
    <path class="cls-1" d="m506.73,78.22h-7.71c-5.21,0-6.97-.99-9.39-5.25l-9.81-18.13c-1.01-1.76-3.15-1.97-4.89-1.97h-3.8l-.04,13.4c0,1.28.57,1.85,1.85,1.85h5v10.08h-24.99v-10.12h5c1.28,0,1.85-.57,1.85-1.85V13.63c0-1.28-.57-1.85-1.85-1.85h-4.85V1.98h10.73c4.03,0,7.31,3.28,7.31,7.31v33.84h4.31c1.34,0,3.82-.27,5.27-2.16l12.6-17.68h13.04l-15.16,20.81c-1.66,2.25-2.96,3.36-3.65,3.84.74.48,2.02,1.58,3.28,3.95l8,14.6c.76,1.49,1.6,1.87,4.16,1.87h3.8v9.87h-.04Z"/>
    <path class="cls-1" d="m539.93,79.5c-16.91,0-29.17-12.1-29.17-28.75s11.34-28.75,27.58-28.75c7.31,0,13.42,2.63,17.66,7.56,3.91,4.56,6.07,11.03,6.07,18.19,0,1.41-.32,4.2-.32,4.33l-.04.44h-39.25c.9,11.76,9.64,17.03,18.04,17.03,8.97,0,15.37-6.09,15.44-6.15l.44-.42,5,8.21-.27.27c-.13.11-8.32,8.04-21.17,8.04Zm-17.01-35.52h27.47c-.46-7.77-5.21-12.77-12.18-12.77-7.83-.02-13.65,4.87-15.29,12.77Z"/>
    <path class="cls-1" d="m634.99,78.36h-12.2c-5.06,0-7.31-2.25-7.31-7.31v-25.37c0-7.83-1.64-13.04-9.64-13.04s-14.45,5.04-16.59,12.85c-.65,1.87-.95,4.05-.95,7.12v18.44c0,5.06-2.25,7.31-7.31,7.31h-12.2v-9.83h6.32c1.28,0,1.85-.57,1.85-1.85l-.17-26.38c0-5.17-1.47-7.16-5.25-7.16-1.66,0-2.81.11-2.84.11l-.55.04.13-9.49.44-.04s2.18-.21,4.62-.21c7.96,0,12.6,3.36,14.16,10.29,2.16-3.91,7.98-11.7,20.23-11.7s19.05,6.93,19.05,21.17v23.36c0,1.28.57,1.85,1.85,1.85h6.32v9.85h.04Z"/>
    <path class="cls-1" d="m414.19,78.91h-12.2c-5.06,0-7.31-2.25-7.31-7.31v-25.37c0-7.83-1.64-13.04-9.64-13.04s-14.45,5.04-16.59,12.85c-.65,1.87-.95,4.05-.95,7.12v18.44c0,5.06-2.25,7.31-7.31,7.31h-12.2v-9.83h6.32c1.28,0,1.85-.57,1.85-1.85l-.17-26.38c0-5.17-1.47-7.16-5.25-7.16-1.66,0-2.81.11-2.84.11l-.55.04.13-9.49.44-.04s2.18-.21,4.62-.21c7.96,0,12.6,3.36,14.16,10.29,2.16-3.91,7.98-11.7,20.23-11.7s19.05,6.93,19.05,21.17v23.36c0,1.28.57,1.85,1.85,1.85h6.32v9.85h.04Z"/>
    <path class="cls-1" d="m208.81,81.1c-16.91,0-29.17-12.1-29.17-28.75s11.34-28.75,27.58-28.75c7.31,0,13.42,2.63,17.66,7.56,3.91,4.56,6.07,11.03,6.07,18.19,0,1.41-.32,4.2-.32,4.33l-.04.44h-39.25c.9,11.76,9.64,17.03,18.04,17.03,8.97,0,15.37-6.09,15.44-6.15l.44-.42,5,8.21-.27.27c-.13.11-8.32,8.04-21.17,8.04Zm-17.01-35.52h27.47c-.46-7.77-5.21-12.77-12.18-12.77-7.83-.02-13.65,4.87-15.29,12.77Z"/>
    <path class="cls-1" d="m271.21,45.65h2.38v-.54c0-9.61-3.56-13.07-12.09-13.07-2.59,0-8.67.59-8.67,4.16v3.19h-10.12v-5.4c0-8.96,13.61-10.26,18.9-10.26,17.71,0,22.46,9.29,22.46,21.38v23.22c0,1.62.99,1.5,2.5,1.5h4.29v9.84s-9.82,0-9.82,0c-4.86,0-6.8-2.38-6.8-6.26,0-1.83.22-3.24.22-3.24h-.22s-4.32,10.8-17.39,10.8c-9.4,0-18.57-5.72-18.57-16.63,0-17.6,23.76-18.68,32.94-18.68Zm-12.09,26.89c8.85,0,14.58-9.29,14.58-17.39v-1.84h-2.7c-7.88,0-22.14.43-22.14,10.47,0,4.43,3.35,8.75,10.26,8.75Z"/>
    <path class="cls-1" d="m121,16.38c0-1.62-1-2.38-2.74-2.38h-5.35V4.72h12.58c5.6,0,7.97,2.05,7.97,6.91v57.67c0,1.51,1,2.38,2.74,2.38h24.28c1.74,0,2.74-.86,2.74-2.38v-4.86h11.33v9.61c0,4.86-2.37,6.91-7.97,6.91h-37.6c-5.6,0-7.97-2.05-7.97-6.91V16.38Z"/>
  </g>
  <g>
    <path class="cls-1" d="m62.29,79.33c3.35,0,11.53-.94,11.53-10.98v-12.02c0-10.77,10.47-12.2,10.47-12.2v-.21s-10.47-4-10.47-14.35v-10.77c0-10.03-8.18-10.98-11.53-10.98h-1.88V.1s1.21-.1,3.08-.1c6.44,0,21.33,2.75,21.33,19.26v8.78c0,10.87,11.4,11.6,11.4,11.6v8.99s-11.4.73-11.4,11.39v10.03c0,16.62-14.89,17.22-21.33,17.22-1.88,0-3.08-.21-3.08-.21v-7.73h1.88Z"/>
    <ellipse class="cls-1" cx="38.98" cy="32.76" rx="4.33" ry="7.15"/>
    <ellipse class="cls-1" cx="57.05" cy="32.76" rx="4.33" ry="7.15"/>
    <path class="cls-1" d="m53.77,47.36v1.53c0,6.78-4.63,7.41-6.52,7.41h-1.06v5.22s.68.14,1.74.14c3.64,0,12.29-1.13,12.29-12.36v-1.95h-6.45Z"/>
    <path class="cls-1" d="m35.81,79.33v7.73s-1.21.21-3.08.21c-6.44,0-21.33-.6-21.33-17.22v-10.03c0-10.66-11.4-11.39-11.4-11.39v-8.99s11.4-.73,11.4-11.6v-8.78C11.4,2.75,26.29,0,32.73,0c1.88,0,3.08.1,3.08.1v7.74h-1.88c-3.35,0-11.53.94-11.53,10.98v10.77c0,10.35-10.47,14.35-10.47,14.35v.21s10.47,1.44,10.47,12.2v12.02c0,10.03,8.18,10.98,11.53,10.98h1.88Z"/>
  </g>
</svg>