<svg width="300" height="90" viewBox="0 0 300 90" fill="none" xmlns="http://www.w3.org/2000/svg">
<path d="M135.3 87H136.98V71.616H141.132C141.492 71.616 141.66 71.76 141.66 72.144V73.272H143.22V71.496C143.22 70.464 142.884 70.128 141.852 70.128H130.428C129.396 70.128 129.06 70.464 129.06 71.496V73.272H130.596V72.144C130.596 71.76 130.788 71.616 131.124 71.616H135.3V87ZM142.738 80.904C142.738 84.552 145.594 87.288 149.122 87.288C152.626 87.288 155.482 84.552 155.482 80.904C155.482 77.328 152.626 74.64 149.098 74.64C145.594 74.64 142.738 77.328 142.738 80.904ZM144.418 80.904C144.418 78.168 146.53 76.128 149.122 76.128C151.69 76.128 153.802 78.168 153.802 80.904C153.802 83.712 151.69 85.824 149.122 85.824C146.53 85.824 144.418 83.712 144.418 80.904ZM158.49 82.608C158.49 85.752 159.69 87.288 162.546 87.288C165.186 87.288 166.77 85.416 167.25 84.24H167.298C167.298 84.24 167.25 84.624 167.25 85.104V85.656C167.25 86.568 167.706 87 168.714 87H170.37V85.584H169.362C169.026 85.584 168.834 85.416 168.834 85.056V74.928H167.202V80.712C167.202 83.328 165.498 85.752 162.762 85.752C160.434 85.752 160.122 84.072 160.122 82.176V76.344C160.122 75.36 159.69 74.928 158.658 74.928H156.954V76.344H157.962C158.298 76.344 158.49 76.536 158.49 76.872V82.608ZM171.871 80.976C171.871 84.72 174.607 87.288 178.207 87.288C181.303 87.288 182.935 85.32 182.935 85.32L182.167 84.096C182.167 84.096 180.751 85.8 178.279 85.8C175.735 85.8 173.551 83.952 173.551 80.976C173.551 78.048 175.639 76.104 178.231 76.104C179.239 76.104 180.991 76.584 180.991 77.592V78.288H182.527V77.208C182.527 75.216 179.599 74.64 178.231 74.64C174.631 74.64 171.871 77.28 171.871 80.976ZM185.536 87H187.168V81.216C187.168 80.64 187.216 80.088 187.36 79.608C187.912 77.592 189.688 76.176 191.728 76.176C194.08 76.176 194.368 77.856 194.368 79.752V85.536C194.368 86.568 194.8 87 195.832 87H197.536V85.584H196.528C196.192 85.584 196 85.416 196 85.056V79.32C196 76.344 194.944 74.64 191.944 74.64C189.232 74.64 187.624 76.488 187.168 77.64H187.12C187.12 77.64 187.168 77.208 187.168 76.656V71.544C187.168 70.56 186.736 70.128 185.704 70.128H184V71.544H185.008C185.344 71.544 185.536 71.736 185.536 72.072V87ZM206.823 82.608C206.823 86.64 209.631 87.096 211.023 87.096C211.431 87.096 211.719 87.048 211.719 87.048V85.584C211.719 85.584 211.503 85.632 211.167 85.632C210.255 85.632 208.455 85.272 208.455 82.44V76.296H211.479V74.928H208.455V71.592H206.847V74.928H205.239V76.296H206.823V82.608ZM213.355 80.904C213.355 84.552 216.211 87.288 219.739 87.288C223.243 87.288 226.099 84.552 226.099 80.904C226.099 77.328 223.243 74.64 219.715 74.64C216.211 74.64 213.355 77.328 213.355 80.904ZM215.035 80.904C215.035 78.168 217.147 76.128 219.739 76.128C222.307 76.128 224.419 78.168 224.419 80.904C224.419 83.712 222.307 85.824 219.739 85.824C217.147 85.824 215.035 83.712 215.035 80.904ZM235.694 87H237.326V81.288C237.326 80.736 237.374 80.184 237.518 79.68C238.022 77.832 239.486 76.128 241.454 76.128C243.734 76.128 243.998 77.904 243.998 79.728V87H245.63V81.288C245.63 80.64 245.678 80.064 245.846 79.536C246.326 77.76 247.838 76.128 249.662 76.128C251.87 76.128 252.278 77.76 252.278 79.728V85.536C252.278 86.568 252.71 87 253.742 87H255.446V85.584H254.438C254.102 85.584 253.91 85.416 253.91 85.056V79.32C253.91 76.344 252.83 74.64 249.902 74.64C247.862 74.64 246.11 76.032 245.462 77.664H245.414C245.054 75.672 243.902 74.64 241.67 74.64C239.798 74.64 237.902 76.056 237.302 77.688H237.254C237.254 77.688 237.302 77.304 237.302 76.824V76.272C237.302 75.36 236.846 74.928 235.838 74.928H234.158V76.344H235.166C235.502 76.344 235.694 76.536 235.694 76.872V87ZM256.902 80.976C256.902 84.696 259.638 87.288 263.214 87.288C265.95 87.288 267.702 85.56 267.702 85.56L266.91 84.336C266.91 84.336 265.494 85.824 263.286 85.824C260.79 85.824 258.654 84.072 258.606 81.024H267.87C267.87 81.024 267.918 80.496 267.918 80.208C267.918 77.208 266.19 74.64 262.854 74.64C259.614 74.64 256.902 77.016 256.902 80.976ZM258.678 79.728C259.086 77.304 260.838 76.008 262.83 76.008C264.606 76.008 266.142 77.232 266.238 79.728H258.678ZM270.051 80.976C270.051 84.696 272.787 87.288 276.363 87.288C279.099 87.288 280.851 85.56 280.851 85.56L280.059 84.336C280.059 84.336 278.643 85.824 276.435 85.824C273.939 85.824 271.803 84.072 271.755 81.024H281.019C281.019 81.024 281.067 80.496 281.067 80.208C281.067 77.208 279.339 74.64 276.003 74.64C272.763 74.64 270.051 77.016 270.051 80.976ZM271.827 79.728C272.235 77.304 273.987 76.008 275.979 76.008C277.755 76.008 279.291 77.232 279.387 79.728H271.827ZM284.471 82.608C284.471 86.64 287.279 87.096 288.671 87.096C289.079 87.096 289.367 87.048 289.367 87.048V85.584C289.367 85.584 289.151 85.632 288.815 85.632C287.903 85.632 286.103 85.272 286.103 82.44V76.296H289.127V74.928H286.103V71.592H284.495V74.928H282.887V76.296H284.471V82.608Z" fill="#252C00"/>
<path d="M10.2228 11.3631V14.9018L14.076 15.0198L17.8899 15.1377L18.1258 31.4549C18.3617 48.9909 18.401 49.4627 20.6029 53.7878C23.3552 59.1744 29.0563 62.1233 36.7234 62.1233C42.4246 62.1233 47.3001 60.0394 51.6645 55.793C53.1979 54.2989 54.4561 53.08 54.4954 53.08C54.4954 53.08 54.7313 53.8271 55.0065 54.7314C56.2647 58.9778 59.2529 61.1403 64.5216 61.5728C66.173 61.7301 68.4928 61.7301 69.7116 61.5728L71.9528 61.2976V58.0735V54.8494H68.6107C65.7012 54.8494 65.19 54.7314 64.4036 53.945L63.4993 53.0407L63.3814 35.0329C63.2634 13.3291 62.8702 14.9411 68.4534 14.9411H71.9528V11.4025V7.86379H67.7064C61.0616 7.86379 57.7588 9.31857 55.7143 13.0931C54.8886 14.6659 54.8493 15.295 54.6527 27.7196C54.4561 38.7288 54.2988 40.9699 53.7483 42.4641C52.0183 46.907 48.401 50.7996 44.1153 52.8048C41.9528 53.7878 40.8912 54.063 38.0209 54.181C33.8139 54.3776 31.73 53.7091 29.7247 51.5073C27.0904 48.5977 27.0118 47.8507 26.7759 28.3094C26.5793 15.2163 26.422 10.5768 26.0288 9.94767C25.1245 8.29629 24.1022 8.0997 17.0249 7.94243L10.2228 7.78515V11.3631Z" fill="#252C00"/>
<path d="M78.2438 11.3238V14.9018L80.5242 15.0197L82.7654 15.1377L82.962 34.7969C83.1586 52.6082 83.2372 54.6134 83.8663 56.0289C85.4784 59.6462 87.9161 61.0223 93.1062 61.2583L96.7235 61.4155V58.27V55.1246L94.5216 54.9673C92.0446 54.7707 91.2975 54.1809 90.8257 52.0577C90.6291 51.232 90.4325 41.717 90.4325 30.9437C90.4325 9.82968 90.4325 9.71172 88.3486 8.57149C87.8768 8.33557 85.3997 8.02103 82.8834 7.94239L78.2438 7.78512V11.3238Z" fill="#252C00"/>
<path d="M141.271 8.64995C139.699 9.59359 139.187 10.5372 139.187 12.5818C139.187 13.9186 139.423 14.4691 140.524 15.57C142.018 17.0641 143.906 17.3393 145.832 16.3171C146.972 15.7666 148.231 13.6434 148.231 12.3066C148.231 11.1663 146.815 9.12177 145.518 8.45336C143.945 7.66699 142.805 7.70631 141.271 8.64995Z" fill="#252C00"/>
<path d="M161.206 11.1665V14.5479H163.172C164.666 14.5479 165.216 14.7052 165.531 15.295C165.767 15.8061 165.924 22.6082 165.924 34.7576C165.924 55.911 166.121 54.6528 162.739 54.6528H160.813V57.9948V61.3369H169.463H178.113V57.9948V54.6528H176.225C175.203 54.6528 174.142 54.4562 173.866 54.1809C173.552 53.8664 173.395 52.0578 173.395 48.6764V43.6436H175.793C177.09 43.6436 178.506 43.8009 178.899 44.0368C179.292 44.2334 181.376 47.6541 183.499 51.5859C185.623 55.5178 187.824 59.1744 188.414 59.7642C189.672 61.0617 190.931 61.3369 195.256 61.3369H198.558V57.9948V54.6528H196.474C195.334 54.6528 194.115 54.4169 193.762 54.1416C193.408 53.9057 191.756 51.1927 190.105 48.1652C188.414 45.1377 186.645 42.0709 186.094 41.3631L185.111 40.0263L186.134 38.9647C186.684 38.4142 189.594 34.561 192.582 30.4719L198.047 23.0014L194.115 22.8834C191.914 22.8441 189.948 22.8441 189.712 22.9621C189.436 23.0407 187.156 26.0682 184.6 29.6462C179.528 36.7235 179.253 36.9595 175.518 36.9595H173.395V24.5348C173.395 10.7733 173.316 10.2622 170.917 8.84673C169.935 8.25696 168.716 8.06036 165.452 7.94241L161.206 7.78513V11.1665Z" fill="#252C00"/>
<path d="M217.235 22.4115C209.528 24.0236 204.142 29.2923 202.294 37.038C199.187 50.3276 208.506 62.1625 222.071 62.1232C226.828 62.1232 232.726 60.0393 235.95 57.287L236.972 56.422L235.321 53.827L233.709 51.1927L231.429 52.6868C225.373 56.6579 217.313 56.2254 213.067 51.6252C211.297 49.6986 210.157 47.4574 209.764 44.9017L209.489 43.2503H223.486H237.484V40.1835C237.484 32.6736 233.945 26.3434 228.283 23.7484C224.784 22.1756 220.852 21.6645 217.235 22.4115ZM225.806 29.7248C227.536 30.9436 229.03 33.46 229.463 35.8584L229.699 37.3525H219.83C211.966 37.3525 209.961 37.2346 209.961 36.8414C209.961 35.6619 212.123 32.1625 213.578 30.865C215.858 28.9384 217.864 28.3093 221.284 28.4666C223.722 28.5845 224.43 28.7811 225.806 29.7248Z" fill="#252C00"/>
<path d="M267.208 22.4509C265.95 22.6475 263.984 23.198 262.844 23.7484C260.799 24.6528 257.497 27.5623 256.317 29.4496L255.727 30.3933L254.626 28.1914C252.936 24.6528 250.065 23.198 244.875 23.198H242.202V26.4221V29.6855H244.207C245.858 29.6855 246.37 29.8821 247.077 30.7078C247.942 31.7301 247.982 32.0446 248.178 42.7C248.296 48.7157 248.335 53.8664 248.218 54.1416C248.06 54.4955 247.156 54.6528 245.308 54.6528H242.595V57.9948V61.3369H247.706C253.368 61.3369 254.666 60.983 255.491 59.1744C255.806 58.506 255.963 55.4785 255.963 49.9346C255.963 41.4024 256.278 38.6895 257.615 35.9765C258.637 33.9319 260.878 31.5728 262.765 30.5899C266.186 28.8598 271.219 28.9385 273.224 30.7865C275.269 32.6737 275.387 33.4994 275.544 46.1993C275.622 53.5519 275.819 58.4273 276.094 59.0958C276.802 60.9437 278.139 61.3369 283.879 61.3369H288.991V57.9948V54.6921L286.16 54.5741L283.29 54.4562L283.054 43.2504C282.857 32.3199 282.7 30.9437 281.402 28.4273C278.965 23.7484 273.657 21.5073 267.208 22.4509Z" fill="#252C00"/>
<path d="M124.915 22.8441C121.533 23.6305 118.231 26.1862 116.579 29.253C116.147 30.0394 115.675 30.6685 115.518 30.6685C115.321 30.6685 115.203 29.4889 115.203 28.0735C115.203 25.7537 115.085 25.3998 114.063 24.3382C112.923 23.198 112.883 23.198 107.969 23.198H103.014V26.3435V29.4889H104.744C107.969 29.4889 107.733 28.506 107.733 42.0709C107.733 55.6357 107.969 54.6528 104.744 54.6528H103.014V57.9948V61.3369H111.664H120.315V57.9948V54.6528H118.467C115.439 54.6528 115.478 54.8494 115.675 47.1429C115.832 41.2452 115.95 39.987 116.737 38.0604C118.702 33.0276 122.359 30.1574 126.881 30.118L129.358 30.0787V26.5007C129.358 23.08 129.318 22.8834 128.493 22.6475C127.392 22.3723 126.802 22.4116 124.915 22.8441Z" fill="#252C00"/>
<path d="M135.649 26.54V30.236L137.929 30.3539L140.17 30.4719L140.406 42.0708C140.642 54.1023 140.799 55.3212 142.569 57.9948C142.923 58.5453 144.024 59.4889 145.006 60.0787C146.54 60.9437 147.405 61.1403 150.472 61.2583L154.128 61.4155V58.2307V55.0459H152.398C151.101 55.0459 150.354 54.81 149.528 54.1023L148.427 53.1586L148.231 39.4365C147.995 21.9791 148.388 22.8048 140.131 22.8048H135.649V26.54Z" fill="#252C00"/>
</svg>
