<?xml version="1.0" encoding="utf-8"?>
<!-- Generator: Adobe Illustrator 24.1.3, SVG Export Plug-In . SVG Version: 6.00 Build 0)  -->
<svg version="1.1" id="Layer_1" xmlns="http://www.w3.org/2000/svg" xmlns:xlink="http://www.w3.org/1999/xlink" x="0px" y="0px"
	 viewBox="0 0 3502.81 3061.42" style="enable-background:new 0 0 3502.81 3061.42;" xml:space="preserve">
<style type="text/css">
	.st0{fill:#FFFFFF;}
</style>
<g>
	<path class="st0" d="M1534.15,3044.93c-699.99,0-1054.9-380.72-1054.9-1131.58V489.82c0-50.15-22.37-72.52-72.52-72.52H46.94v-395
		H694.1c197.28,0,285.26,88,285.26,285.33l-2.04,607.65v899.81c0,667.03,273.28,778.01,568.61,778.01
		c384.14,0,708.4-224.78,889.65-616.71c25.47-64.6,44.4-127.07,52.85-174.89c15.17-85.74,18.58-373.71,18.58-461.15l2.38-811.72
		c10.15-353.37,303.19-514.54,575.8-514.54c94.68,0,366.56,8.15,369.3,8.24l18.24,0.55l4.61,394.45l-19.67-0.41
		c-1.96-0.05-197.1-4.15-262.49-4.15c-147.56,0-205.06,78.4-205.06,279.63l6.27,1650.3c0,201.35,57.48,279.77,204.98,279.77
		c65.46,0,260.6-4.03,262.57-4.07l19.67-0.41l-4.69,384.78l-18.18,0.59c-2.54,0.09-254.28,8.39-348.98,8.39
		c-480.79,0-578.54-273.06-610.24-478.46l-0.69-5.47C2268.61,2852.56,1910.76,3044.93,1534.15,3044.93z"/>
</g>
</svg>
