<?xml version="1.0" encoding="utf-8"?>
<!-- Generator: Adobe Illustrator 27.8.1, SVG Export Plug-In . SVG Version: 6.00 Build 0)  -->
<svg version="1.1" id="Layer_1" xmlns="http://www.w3.org/2000/svg" xmlns:xlink="http://www.w3.org/1999/xlink" x="0px" y="0px"
	 viewBox="0 0 3502.8 3061.4" style="enable-background:new 0 0 3502.8 3061.4;" xml:space="preserve">
<style type="text/css">
	.st0{fill:#637D36;}
</style>
<g>
	<path class="st0" d="M1534.2,3044.9c-700,0-1054.9-380.7-1054.9-1131.6V489.8c0-50.1-22.4-72.5-72.5-72.5H46.9v-395h647.2
		c197.3,0,285.3,88,285.3,285.3l-2,607.7v899.8c0,667,273.3,778,568.6,778c384.1,0,708.4-224.8,889.7-616.7
		c25.5-64.6,44.4-127.1,52.9-174.9c15.2-85.7,18.6-373.7,18.6-461.2l2.4-811.7c10.1-353.4,303.2-514.5,575.8-514.5
		c94.7,0,366.6,8.1,369.3,8.2l18.2,0.5l4.6,394.5l-19.7-0.4c-2,0-197.1-4.1-262.5-4.1c-147.6,0-205.1,78.4-205.1,279.6l6.3,1650.3
		c0,201.4,57.5,279.8,205,279.8c65.5,0,260.6-4,262.6-4.1l19.7-0.4l-4.7,384.8l-18.2,0.6c-2.5,0.1-254.3,8.4-349,8.4
		c-480.8,0-578.5-273.1-610.2-478.5l-0.7-5.5C2268.6,2852.6,1910.8,3044.9,1534.2,3044.9z"/>
</g>
</svg>
